<?xml version="1.0" encoding="UTF-8" standalone="no"?>
<!-- Created with Inkscape (http://www.inkscape.org/) -->

<svg
   xmlns:dc="http://purl.org/dc/elements/1.1/"
   xmlns:cc="http://creativecommons.org/ns#"
   xmlns:rdf="http://www.w3.org/1999/02/22-rdf-syntax-ns#"
   xmlns:svg="http://www.w3.org/2000/svg"
   xmlns="http://www.w3.org/2000/svg"
   xmlns:xlink="http://www.w3.org/1999/xlink"
   version="1.0"
   width="120"
   height="143.77499"
   id="svg2">
  <metadata
     id="metadata371">
    <rdf:RDF>
      <cc:Work
         rdf:about="">
        <dc:format>image/svg+xml</dc:format>
        <dc:type
           rdf:resource="http://purl.org/dc/dcmitype/StillImage" />
        <dc:title></dc:title>
      </cc:Work>
    </rdf:RDF>
  </metadata>
  <defs
     id="defs4">
    <linearGradient
       id="linearGradient3797">
      <stop
         id="stop3803"
         style="stop-color:#002a7f;stop-opacity:0.66666669"
         offset="0" />
      <stop
         id="stop3801"
         style="stop-color:#002a7f;stop-opacity:1"
         offset="1" />
    </linearGradient>
    <linearGradient
       id="linearGradient2795">
      <stop
         id="stop2797"
         style="stop-color:#b8b8b8;stop-opacity:0.49803922"
         offset="0" />
      <stop
         id="stop2799"
         style="stop-color:#7f7f7f;stop-opacity:0"
         offset="1" />
    </linearGradient>
    <linearGradient
       id="linearGradient2787">
      <stop
         id="stop2789"
         style="stop-color:#7f7f7f;stop-opacity:0.5"
         offset="0" />
      <stop
         id="stop2791"
         style="stop-color:#7f7f7f;stop-opacity:0"
         offset="1" />
    </linearGradient>
    <linearGradient
       id="linearGradient3676">
      <stop
         id="stop3678"
         style="stop-color:#b2b2b2;stop-opacity:0.5"
         offset="0" />
      <stop
         id="stop3680"
         style="stop-color:#b3b3b3;stop-opacity:0"
         offset="1" />
    </linearGradient>
    <linearGradient
       id="linearGradient3236">
      <stop
         id="stop3244"
         style="stop-color:#f4f4f4;stop-opacity:1"
         offset="0" />
      <stop
         id="stop3240"
         style="stop-color:#ffffff;stop-opacity:1"
         offset="1" />
    </linearGradient>
    <linearGradient
       id="linearGradient4671">
      <stop
         id="stop3805"
         style="stop-color:#fcd216;stop-opacity:0"
         offset="0" />
      <stop
         id="stop4675"
         style="stop-color:#fcd216;stop-opacity:1"
         offset="1" />
    </linearGradient>
    <linearGradient
       id="linearGradient4689">
      <stop
         id="stop4691"
         style="stop-color:#002a7f;stop-opacity:0.66666669"
         offset="0" />
      <stop
         id="stop4693"
         style="stop-color:#002a7f;stop-opacity:1"
         offset="1" />
    </linearGradient>
    <linearGradient
       x1="224.23996"
       y1="144.75717"
       x2="-65.308502"
       y2="144.75717"
       id="linearGradient2987"
       xlink:href="#linearGradient4671"
       gradientUnits="userSpaceOnUse"
       gradientTransform="translate(100.2702,99.61116)" />
    <linearGradient
       x1="172.94208"
       y1="77.475983"
       x2="26.670298"
       y2="76.313133"
       id="linearGradient2990"
       xlink:href="#linearGradient4689"
       gradientUnits="userSpaceOnUse"
       gradientTransform="translate(100.2702,99.61116)" />
    <linearGradient
       x1="172.94208"
       y1="77.475983"
       x2="26.670298"
       y2="76.313133"
       id="linearGradient2587"
       xlink:href="#linearGradient4689"
       gradientUnits="userSpaceOnUse"
       gradientTransform="translate(100.2702,99.61116)" />
    <linearGradient
       x1="224.23996"
       y1="144.75717"
       x2="-65.308502"
       y2="144.75717"
       id="linearGradient2589"
       xlink:href="#linearGradient4671"
       gradientUnits="userSpaceOnUse"
       gradientTransform="translate(100.2702,99.61116)" />
    <linearGradient
       x1="172.94208"
       y1="77.475983"
       x2="26.670298"
       y2="76.313133"
       id="linearGradient2248"
       xlink:href="#linearGradient4689"
       gradientUnits="userSpaceOnUse"
       gradientTransform="translate(100.2702,99.61116)" />
    <linearGradient
       x1="224.23996"
       y1="144.75717"
       x2="-65.308502"
       y2="144.75717"
       id="linearGradient2250"
       xlink:href="#linearGradient4671"
       gradientUnits="userSpaceOnUse"
       gradientTransform="translate(100.2702,99.61116)" />
    <linearGradient
       x1="224.23996"
       y1="144.75717"
       x2="-65.308502"
       y2="144.75717"
       id="linearGradient2255"
       xlink:href="#linearGradient4671"
       gradientUnits="userSpaceOnUse"
       gradientTransform="matrix(0.562541,0,0,0.567972,-11.5974,-7.60954)" />
    <linearGradient
       x1="172.94208"
       y1="76.176224"
       x2="26.670298"
       y2="76.313133"
       id="linearGradient2258"
       xlink:href="#linearGradient4689"
       gradientUnits="userSpaceOnUse"
       gradientTransform="matrix(0.562541,0,0,0.567972,-11.5974,-7.60954)" />
    <radialGradient
       cx="61.518883"
       cy="132.28575"
       r="29.036913"
       fx="61.518883"
       fy="132.28575"
       id="radialGradient2801"
       xlink:href="#linearGradient2795"
       gradientUnits="userSpaceOnUse"
       gradientTransform="matrix(1,0,0,0.177966,0,108.7434)" />
    <linearGradient
       x1="150.96111"
       y1="192.35176"
       x2="112.03144"
       y2="137.27299"
       id="linearGradient1475"
       xlink:href="#linearGradient3797"
       gradientUnits="userSpaceOnUse"
       gradientTransform="matrix(0.562541,0,0,0.567972,-9.399749,-5.3050977)" />
    <linearGradient
       x1="26.648937"
       y1="20.603781"
       x2="135.66525"
       y2="114.39767"
       id="linearGradient1478"
       xlink:href="#linearGradient4671"
       gradientUnits="userSpaceOnUse"
       gradientTransform="matrix(0.562541,0,0,0.567972,-9.399749,-5.3050977)" />
    <radialGradient
       cx="61.518883"
       cy="132.28575"
       r="29.036913"
       fx="61.518883"
       fy="132.28575"
       id="radialGradient1480"
       xlink:href="#linearGradient2795"
       gradientUnits="userSpaceOnUse"
       gradientTransform="matrix(2.382716e-8,-0.296405,1.43676,4.683673e-7,-128.544,150.5202)" />
  </defs>
  <path
     d="m 60.510156,6.3982023 c -4.583653,0.021 -8.960939,0.4122 -12.8125,1.0938 -11.346216,2.0045 -13.406249,6.2000997 -13.40625,13.9374997 l 0,10.2187 26.8125,0 0,3.406299 -26.8125,0 -10.0625,0 c -7.792459,0 -14.6157592,4.6837 -16.7500002,13.5937 -2.46182,10.213 -2.5710151,16.586 0,27.25 1.9059283,7.9379 6.4575432,13.5938 14.2500002,13.5938 l 9.21875,0 0,-12.25 c 0,-8.8499 7.657144,-16.6563 16.75,-16.6563 l 26.78125,0 c 7.454951,0 13.406253,-6.1381 13.40625,-13.625 l 0,-25.531199 c 0,-7.2664 -6.12998,-12.7247997 -13.40625,-13.9374997 -4.605987,-0.7668 -9.385097,-1.1151 -13.96875,-1.0938 z m -14.5,8.2187997 c 2.769547,0 5.03125,2.2986 5.03125,5.125 -2e-6,2.8163 -2.261703,5.0937 -5.03125,5.0937 -2.779476,0 -5.03125,-2.2774 -5.03125,-5.0937 -1e-6,-2.8264 2.251774,-5.125 5.03125,-5.125 z"
     id="path1948"
     style="fill:url(#linearGradient1478);fill-opacity:1" />
  <path
     d="m 91.228906,35.054501 0,11.9062 c 0,9.2308 -7.825895,17 -16.75,17 l -26.78125,0 c -7.335833,0 -13.406249,6.2785 -13.40625,13.625 l 0,25.531309 c 0,7.2663 6.318588,11.5403 13.40625,13.625 8.487331,2.4956 16.626237,2.9466 26.78125,0 6.750155,-1.9544 13.406253,-5.8876 13.40625,-13.625 l 0,-10.218809 -26.78125,0 0,-3.4062 26.78125,0 13.406254,0 c 7.79246,0 10.69625,-5.4354 13.40624,-13.5938 2.79933,-8.3989 2.68022,-16.4758 0,-27.25 -1.92578,-7.7574 -5.60387,-13.5937 -13.40624,-13.5937 l -10.062504,0 z m -15.0625,64.6562 c 2.779478,0 5.03125,2.277409 5.03125,5.093809 -2e-6,2.8263 -2.251775,5.125 -5.03125,5.125 -2.76955,0 -5.03125,-2.2987 -5.03125,-5.125 2e-6,-2.8164 2.261697,-5.093809 5.03125,-5.093809 z"
     id="path1950"
     style="fill:url(#linearGradient1475);fill-opacity:1" />
  <path
     d="m 110.46717,132.28575 a 48.948284,8.6066771 0 1 1 -97.896571,0 48.948284,8.6066771 0 1 1 97.896571,0 z"
     transform="matrix(0.73406,0,0,0.809524,16.24958,27.009602)"
     id="path1894"
     style="opacity:0.44382019;fill:url(#radialGradient1480);fill-opacity:1;fill-rule:nonzero;stroke:none" />
</svg>
