<?xml version="1.0" encoding="UTF-8" standalone="no"?>
<svg
   xmlns:dc="http://purl.org/dc/elements/1.1/"
   xmlns:cc="http://creativecommons.org/ns#"
   xmlns:rdf="http://www.w3.org/1999/02/22-rdf-syntax-ns#"
   xmlns:svg="http://www.w3.org/2000/svg"
   xmlns="http://www.w3.org/2000/svg"
   id="svg28"
   xml:space="preserve"
   viewBox="0 0 151.11995 152.32778"
   height="152.32777"
   width="151.11995"
   y="0px"
   x="0px"
   version="1.1"><metadata
     id="metadata32"><rdf:RDF><cc:Work
         rdf:about=""><dc:format>image/svg+xml</dc:format><dc:type
           rdf:resource="http://purl.org/dc/dcmitype/StillImage" /><dc:title></dc:title></cc:Work></rdf:RDF></metadata><style
     id="style2"
     type="text/css">
	.st0{fill:#407EB0;}
	.st1{fill:#E72B00;}
	.st2{fill:#FFDA4B;}
	.st3{fill:#646464;}
</style><defs
     id="defs4" /><path
     style="fill:#407eb0"
     id="path6"
     d="m 88.889286,21.1 c -4.6,-0.8 -9.4,-1.1 -14,-1.1 -4.6,0 -9,0.4 -12.8,1.1 -11.3,2 -13.4,6.2 -13.4,13.9 v 10.2 h 26.8 v 3.4 h -36.9 c -7.8,0 -14.6,4.7 -16.8,13.6 -0.2,1 -0.4,1.9 -0.6,2.8 28.1,-12.7 74.900004,-3.4 77.600004,-38.7 -2.5,-2.7 -6.000004,-4.6 -9.900004,-5.2 z m -28.5,17.3 c -2.8,0 -5,-2.3 -5,-5.1 0,-2.8 2.3,-5.1 5,-5.1 2.8,0 5,2.3 5,5.1 0,2.8 -2.2,5.1 -5,5.1 z"
     class="st0" /><path
     style="fill:#e72b00"
     id="path8"
     d="m 60.389286,129.8 c 0.6,0.2 1.1,0.4 1.7,0.5 8.5,2.5 16.6,2.9 26.8,0 6.800004,-2 13.400004,-5.9 13.400004,-13.6 V 106.5 H 75.489286 v -3.4 h 40.200004 c 7.8,0 10.7,-5.4 13.4,-13.6 2,-6.1 2.5,-12.1 1.6,-19.1 -21.3,19.2 -67.800004,17.9 -70.300004,59.4 z m 30.2,-16.5 c 2.8,0 5.000004,2.3 5.000004,5.1 0,2.8 -2.300004,5.1 -5.000004,5.1 -2.8,0 -5,-2.3 -5,-5.1 -0.1,-2.8 2.2,-5.1 5,-5.1 z"
     class="st1" /><path
     style="fill:#ffda4b"
     id="path10"
     d="m 21.289286,65 c 28.1,-12.7 74.900004,-3.4 77.600004,-38.7 2.1,2.4 3.5,5.3 3.5,8.7 v 25.5 c 0,7.5 -6,13.6 -13.400004,13.6 h -26.9 c -9.1,0 -16.7,7.8 -16.7,16.7 V 103 h -9.2 c -7.8,0 -12.3,-5.7 -14.3,-13.6 -2.3,-9.6 -2.5,-15.7 -0.6,-24.4 z M 115.68929,48.6 h -10.1 v 11.9 c 0,9.2 -7.8,17 -16.800004,17 h -26.7 c -7.3,0 -13.4,6.3 -13.4,13.6 v 25.5 c 0,6.7 5.4,10.8 11.7,13.1 2.4,-41.5 49.000004,-40.1 70.300004,-59.4 -0.3,-2.6 -0.9,-5.3 -1.6,-8.2 -1.9,-7.6 -5.6,-13.5 -13.4,-13.5 z"
     class="st2" /></svg>