<!-- Generator: Adobe Illustrator 21.1.0, SVG Export Plug-In  -->
<svg version="1.1"
	 xmlns="http://www.w3.org/2000/svg" xmlns:xlink="http://www.w3.org/1999/xlink" xmlns:a="http://ns.adobe.com/AdobeSVGViewerExtensions/3.0/"
	 x="0px" y="0px" width="570.3px" height="112.7px" viewBox="0 0 570.3 112.7" style="enable-background:new 0 0 570.3 112.7;"
	 xml:space="preserve">
<style type="text/css">
	.st0{fill:#407EB0;}
	.st1{fill:#E72B00;}
	.st2{fill:#FFDA4B;}
	.st3{fill:#646464;}
</style>
<defs>
</defs>
<path class="st0" d="M68.9,1.3c-4.6-0.8-9.4-1.1-14-1.1c-4.6,0-9,0.4-12.8,1.1c-11.3,2-13.4,6.2-13.4,13.9v10.2h26.8v3.4H18.6
	c-7.8,0-14.6,4.7-16.8,13.6c-0.2,1-0.4,1.9-0.6,2.8c28.1-12.7,74.9-3.4,77.6-38.7C76.3,3.8,72.8,1.9,68.9,1.3z M40.4,18.6
	c-2.8,0-5-2.3-5-5.1c0-2.8,2.3-5.1,5-5.1c2.8,0,5,2.3,5,5.1C45.4,16.3,43.2,18.6,40.4,18.6z"/>
<path class="st1" d="M40.4,110c0.6,0.2,1.1,0.4,1.7,0.5c8.5,2.5,16.6,2.9,26.8,0c6.8-2,13.4-5.9,13.4-13.6V86.7H55.5v-3.4h40.2
	c7.8,0,10.7-5.4,13.4-13.6c2-6.1,2.5-12.1,1.6-19.1C89.4,69.8,42.9,68.5,40.4,110z M70.6,93.5c2.8,0,5,2.3,5,5.1
	c0,2.8-2.3,5.1-5,5.1c-2.8,0-5-2.3-5-5.1C65.5,95.8,67.8,93.5,70.6,93.5z"/>
<path class="st2" d="M1.3,45.2c28.1-12.7,74.9-3.4,77.6-38.7c2.1,2.4,3.5,5.3,3.5,8.7v25.5c0,7.5-6,13.6-13.4,13.6H42.1
	c-9.1,0-16.7,7.8-16.7,16.7v12.2h-9.2c-7.8,0-12.3-5.7-14.3-13.6C-0.4,60-0.6,53.9,1.3,45.2z M95.7,28.8H85.6v11.9
	c0,9.2-7.8,17-16.8,17H42.1c-7.3,0-13.4,6.3-13.4,13.6v25.5c0,6.7,5.4,10.8,11.7,13.1c2.4-41.5,49-40.1,70.3-59.4
	c-0.3-2.6-0.9-5.3-1.6-8.2C107.2,34.7,103.5,28.8,95.7,28.8z"/>
<path class="st3" d="M204.8,85l-20.4-36H178v36h-8.9v-77c0,0,14.5,0,24.3,0c12.2,0,21.7,9.1,21.8,20.7c0,11.7-8.8,20.3-20.5,20.3
	l20.9,36H204.8z M192.3,14.4c-6,0-14.3,0-14.3,0v28.5l14.2-0.1c8.4,0,14-6.3,14-14.3C206.2,21.3,199.9,14.4,192.3,14.4z"/>
<path class="st3" d="M247,30.3c15.4,0.1,24.4,12.7,24.5,27.1c0,14.8-8.1,28.7-24.6,28.8c-16.5-0.1-24.3-14-24.3-28.8
	C222.6,42.9,231.8,30.4,247,30.3z M232.4,57.3c0,10.2,3.3,23.2,14.8,23.3c12.4-0.4,14.6-13.1,14.6-23.3c0-9.6-3.4-20.4-14.9-21
	c-12.2,0.7-14.6,11.3-14.6,21H232.4z"/>
<path class="st3" d="M290.1,85h-8.9v-77c0,0,14.5,0,24.3-0.1c12.3,0.1,21.7,9.1,21.8,20.7c0,11.7-8.8,20.4-20.5,20.4h-16.7V85z
	 M304.4,14.4c-6,0-14.3,0-14.3,0v28.5h14c8.4,0,14.2-6,14.2-14.5C318.3,21.2,312.1,14.4,304.4,14.4z"/>
<path class="st3" d="M342.3,67.6c0,8.2,5.9,12.4,13.8,12.3c4.8-0.1,10.1-2.8,13.1-4.8V31.6h8.9V80c0,6.2-0.4,15.6-2.9,20.5
	c-4.5,8.5-17.2,12-26.2,12.2l-1.5-5.6c6.8-1,16.6-2,20.3-8.9c1.8-3.4,2-10.1,2-14c0-1.3,0.1-1,0-2.3C367,83.1,361,86,350.5,86
	c-8.1,0-17.2-5.7-17.2-15.6V33.3l9-3v37.5V67.6z"/>
<path class="st3" d="M384.7,37.3v-5.7h6.1V16.7l8.9-3.2v18.1h10v5.7h-10v34.8c0,7.1,3.8,8.8,10,9v4.6c-11.8,1.1-18.9-4.3-18.9-13.4
	v-35H384.7z"/>
<path class="st3" d="M453.7,85V50.6c0-6.2-3-13.3-10.2-13.3c-5.6,0-10.7,3.3-15.2,6.5V85h-8.9V2.8l8.9-2.8v37.5
	c5.4-3.9,11.5-6.2,18.7-6.2c9.5,0,15.9,7.3,15.9,16.6V85H453.7z"/>
<path class="st3" d="M494.2,30.3c15.4,0.1,24.4,12.7,24.5,27.1c0,14.8-8.1,28.7-24.6,28.8c-16.5-0.1-24.3-14-24.3-28.8
	C469.8,42.9,479,30.4,494.2,30.3z M479.6,57.3c0,10.2,3.3,23.2,14.8,23.3c12.4-0.4,14.6-13.1,14.6-23.3c0-9.6-3.4-20.4-14.9-21
	c-12.2,0.7-14.6,11.3-14.6,21H479.6z"/>
<path class="st3" d="M561.4,85V48.7c0-8.2-5.4-12.7-13.2-12.6c-4.8,0.1-9.3,2.2-12.1,4.1V85h-8.9V39.2c4.5-3.3,8.5-5.9,14.2-7.3
	c4.4-1.2,10.4-2.4,16.7-1c6.5,1.5,12.2,6.1,12.2,13.3V85H561.4z"/>
</svg>
